HIERARCHY
ROOT Hips
{
    OFFSET 0.0 0.0 0.0
    CHANNELS 6 Xposition Yposition Zposition Zrotation Xrotation Yrotation
    JOINT LHipJoint
    {
        OFFSET 0.1 0.0 0.0
        CHANNELS 3 Zrotation Xrotation Yrotation
        JOINT LeftUpLeg
        {
            OFFSET 130.86583719408682 0.0 0.0
            CHANNELS 3 Zrotation Xrotation Yrotation
            JOINT LeftLeg
            {
                OFFSET 0.0 0.0 -426.689305464133
                CHANNELS 3 Zrotation Xrotation Yrotation
                JOINT LeftFoot
                {
                    OFFSET 0.0 0.0 -433.80487370070705
                    CHANNELS 3 Zrotation Xrotation Yrotation
                    End Site
                    {
                        OFFSET 0.0 -0.1 0.0
                    }
                }
            }
        }
    }
    JOINT LowerBack
    {
        OFFSET 0.0 0.0 0.1
        CHANNELS 3 Zrotation Xrotation Yrotation
        JOINT Spine
        {
            OFFSET 0.0 0.0 234.32902604407096
            CHANNELS 3 Zrotation Xrotation Yrotation
            JOINT Spine1
            {
                OFFSET 0.0 0.0 251.55163208351547
                CHANNELS 3 Zrotation Xrotation Yrotation
                JOINT LeftShoulder
                {
                    OFFSET 0.1 0.0 0.0
                    CHANNELS 3 Zrotation Xrotation Yrotation
                    JOINT LeftArm
                    {
                        OFFSET 147.0399365763712 0.0 0.0
                        CHANNELS 3 Zrotation Xrotation Yrotation
                        JOINT LeftForeArm
                        {
                            OFFSET 271.77264091002996 0.0 0.0
                            CHANNELS 3 Zrotation Xrotation Yrotation
                            JOINT LeftHand
                            {
                                OFFSET 224.53958999218935 0.0 0.0
                                CHANNELS 3 Zrotation Xrotation Yrotation
                                End Site
                                {
                                    OFFSET 0.1 0.0 0.0
                                }
                            }
                        }
                    }
                }
                JOINT Neck
                {
                    OFFSET 0.0 0.0 0.1
                    CHANNELS 3 Zrotation Xrotation Yrotation
                    JOINT Neck1
                    {
                        OFFSET 0.0 0.0 126.45058369038901
                        CHANNELS 3 Zrotation Xrotation Yrotation
                        End Site
                        {
                            OFFSET 0.0 0.0 108.308646808222
                        }
                    }
                }
                JOINT RightShoulder
                {
                    OFFSET -0.1 0.0 0.0
                    CHANNELS 3 Zrotation Xrotation Yrotation
                    JOINT RightArm
                    {
                        OFFSET -147.0399365763712 0.0 0.0
                        CHANNELS 3 Zrotation Xrotation Yrotation
                        JOINT RightForeArm
                        {
                            OFFSET -271.77264091002996 0.0 0.0
                            CHANNELS 3 Zrotation Xrotation Yrotation
                            JOINT RightHand
                            {
                                OFFSET -224.53958999218935 0.0 0.0
                                CHANNELS 3 Zrotation Xrotation Yrotation
                                End Site
                                {
                                    OFFSET -0.1 0.0 0.0
                                }
                            }
                        }
                    }
                }
            }
        }
    }
    JOINT RHipJoint
    {
        OFFSET -0.1 0.0 0.0
        CHANNELS 3 Zrotation Xrotation Yrotation
        JOINT RightUpLeg
        {
            OFFSET -130.86583719408682 0.0 0.0
            CHANNELS 3 Zrotation Xrotation Yrotation
            JOINT RightLeg
            {
                OFFSET 0.0 0.0 -426.689305464133
                CHANNELS 3 Zrotation Xrotation Yrotation
                JOINT RightFoot
                {
                    OFFSET 0.0 0.0 -433.80487370070705
                    CHANNELS 3 Zrotation Xrotation Yrotation
                    End Site
                    {
                        OFFSET 0.0 -0.1 0.0
                    }
                }
            }
        }
    }
}
MOTION
Frames: 9
Frame Time: 0.03333333333333333
0.0 0.0 872.5213967736765 -2.6208259474815585 -6.886585204377232 5.755707204800281 0.0 0.0 -2.4848083448933725e-16 0.13746722966077188 -0.9847306858647538 -4.752272249961609 -5.505793698740741 23.690085511422282 5.545141416904925 -7.951386703658792e-16 -1.3793457181406746e-33 1.987846675914698e-16 0.0 0.0 -2.4848083448933725e-16 -1.577177640438512 11.685158335687156 -5.217598845917814 -11.608667093523577 8.188728191894394e-16 8.324064239747866e-17 0.0 0.0 0.0 -35.63778738153783 4.657731773181424 70.41414887269238 -27.889276462417843 3.832317751972442e-15 -1.5434103235769945e-14 -1.7655625192200634e-31 6.3611093629270335e-15 3.1805546814635168e-15 0.0 0.0 0.0 23.06212456773716 11.741666710984711 -49.578585575584434 0.0 0.0 0.0 9.519355337924326 23.591521091849234 -59.75928756853517 103.26404477194777 1.1013699785277694e-14 1.6832573787479843e-14 0.0 0.0 0.0 0.0 0.0 -2.4848083448933725e-16 -0.8595755335196813 6.385384016075145 -8.88016261171693 -3.341041294874378 11.125831546163703 3.4113716189905587 1.3847337873521616e-33 -1.5964893615939918e-15 9.93923337957349e-17
0.0 0.0 872.5213967736765 -2.5663136165250138 -6.954326821950347 5.744630367881807 -3.9756933518293955e-16 -7.951386703658791e-16 1.143011838650951e-15 0.14299097518917395 -1.0278904256436052 -4.7800010702627445 -5.554969460910703 23.843783263798525 5.583885146825864 -7.951386703658792e-16 0.0 0.0 -3.9756933518293955e-16 -7.951386703658791e-16 1.143011838650951e-15 -1.578223540835547 11.706017123260349 -5.184939968544274 -11.650267352194263 5.275675088531646e-16 1.5373040878859656e-16 0.0 0.0 0.0 -35.65307326937834 4.6837995431387975 70.40408108148092 -27.808609431746543 -9.231880413090025e-15 1.0820856975027195e-14 0.0 0.0 -3.1805546814635168e-15 0.0 0.0 0.0 22.93009539168742 11.84484357594912 -49.428839380850825 0.0 0.0 0.0 9.824307723054472 23.806864277469263 -59.75196324458917 102.93135703033761 3.5009596174461568e-15 1.0920180713712781e-14 0.0 0.0 0.0 -3.9756933518293955e-16 -7.951386703658791e-16 1.143011838650951e-15 -0.8680188719338876 6.455984057388654 -8.859311116066781 -3.3350729311312346 11.12634955544759 3.3498871133360226 0.0 0.0 9.93923337957349e-17
0.0 0.0 872.5213967736765 -2.4633799624363357 -7.0410429630475155 5.798132910781551 0.0 0.0 2.7332891793827095e-16 0.14114758315632736 -1.0293045821516937 -4.790414400965816 -5.567848324177666 24.06423857621504 5.516115280785284 -8.620910738379216e-35 4.9696166897867443e-17 1.9878466759146977e-16 0.0 0.0 2.7332891793827095e-16 -1.5669337306467965 11.787823764532131 -5.22180588308729 -11.658257219677699 8.452056020919622e-16 -1.135308806673814e-16 0.0 0.0 0.0 -35.63587344782003 4.681584214174773 70.32855059222537 -27.923489027145067 -1.1578981573651522e-14 -6.15613215479411e-15 0.0 0.0 -1.5902773407317584e-15 0.0 0.0 0.0 22.75798573605138 11.60736904977037 -49.3092845659271 0.0 0.0 0.0 9.831721930980184 23.76429665731871 -59.739521774859796 102.70623150807064 -2.465668971452294e-16 7.947562851362297e-15 0.0 0.0 0.0 0.0 0.0 2.7332891793827095e-16 -0.8743204163386303 6.5965338365909165 -8.952589284380196 -3.298135406439657 11.014465240739352 3.3798932414155476 0.0 0.0 0.0
0.0 0.0 872.5213967736765 -2.5442871554848687 -7.056836277287606 5.881336348264931 3.975693351829396e-16 1.1207183959892982e-33 3.2302508483613845e-16 0.1331889603890283 -0.9869670986873063 -4.856775295574921 -5.5185017368055975 23.99538667565626 5.4613395064538475 0.0 0.0 1.987846675914698e-16 3.975693351829396e-16 1.1207183959892982e-33 3.2302508483613845e-16 -1.5392964412816121 11.792493943529847 -5.249503045211519 -11.642415621135372 1.1641166950012187e-15 2.1858955075146439e-16 0.0 0.0 0.0 -35.52719621741046 4.696220517201196 70.25728829902765 -27.965772273430506 2.3055719771979674e-15 -9.25892491566785e-15 0.0 0.0 0.0 0.0 0.0 0.0 22.562329093696174 11.699428852886879 -49.105077806854645 0.0 0.0 0.0 9.787063602228404 23.526666878616364 -59.48377132431086 102.62163439080125 5.217588078562426e-15 -3.971079071235689e-15 0.0 0.0 0.0 3.975693351829396e-16 1.1207183959892982e-33 3.2302508483613845e-16 -0.861744498044517 6.620745570814543 -9.024869316348537 -3.2838120447197796 11.010176139247616 3.4998907277002647 0.0 -1.5902773407317584e-15 0.0
0.0 0.0 872.5213967736765 -2.5723710865847633 -7.125959027364841 5.938900653401975 0.0 0.0 6.957463365701443e-16 0.11960297066314221 -0.8995817333746177 -4.768539761964758 -5.411850217578275 24.002907260921166 5.167896391471983 0.0 0.0 0.0 0.0 0.0 6.957463365701443e-16 -1.520716442140191 11.883002924080122 -5.3127546905494265 -11.618952654788473 -6.180115806334782e-17 -6.287859835543007e-18 0.0 0.0 0.0 -35.66462184053295 4.662776135513305 70.24113909564527 -27.999961740042206 4.6332681685995786e-15 7.711047317458106e-15 -6.3611093629270335e-15 -8.827812596100317e-32 1.5902773407317584e-15 0.0 0.0 0.0 22.363156457981844 11.854246856895504 -48.86049870924769 0.0 0.0 0.0 10.009394281603022 23.058778047274306 -59.433938883758344 102.9944581718324 -2.1383350402439324e-14 -8.882370961675233e-15 0.0 0.0 3.1805546814635168e-15 0.0 0.0 6.957463365701443e-16 -0.8427015967438859 6.6047175392026 -9.015700519006861 -3.2956857779921536 11.156881151618045 3.5030272494967267 0.0 0.0 0.0
0.0 0.0 872.5213967736765 -2.7658838204173737 -7.165499565983316 5.988346347624089 0.0 0.0 6.460501696722768e-16 0.10165462307155743 -0.7705723484616833 -4.714927538108489 -5.279246490984302 23.805094363502366 4.894983891939891 -8.620910738379216e-35 -4.969616689786745e-17 -1.987846675914698e-16 0.0 0.0 6.460501696722768e-16 -1.5077121099383985 11.987079409723659 -5.377853264154004 -11.613143924802225 -1.1317523658014297e-15 -1.5185433777633686e-17 0.0 0.0 0.0 -35.91307945412279 4.7430926532451405 70.1977712393928 -27.85450838055458 -3.111998326712066e-15 -1.3879266120733157e-14 -6.3611093629270335e-15 0.0 0.0 0.0 0.0 0.0 22.33286823422169 11.959200261276681 -48.58848969926227 0.0 0.0 0.0 10.425086428081395 22.76797516194241 -59.43478983553189 103.00194149945686 1.2445807911941116e-14 9.899498344034971e-15 -8.827812596100317e-32 3.1805546814635168e-15 3.1805546814635168e-15 0.0 0.0 6.460501696722768e-16 -0.8140929424574685 6.492668594664297 -8.93115217218867 -3.30323985050784 11.332889732407978 3.3637323352504263 0.0 0.0 9.93923337957349e-17
0.0 0.0 872.5213967736765 -2.7932153972966285 -7.235908487862956 5.989860565616804 0.0 0.0 3.4787316828507215e-16 0.0947442324929638 -0.718070499770572 -4.654978148606027 -5.239096689904473 23.818648449329995 4.792327352088381 0.0 -3.2302508483613843e-15 0.0 0.0 0.0 3.4787316828507215e-16 -1.513441822741368 12.088434400322313 -5.4166679305851435 -11.592900088167495 -1.2978543064346471e-16 -1.3174999078767549e-17 0.0 0.0 0.0 -36.169648465874616 4.6849943310040585 70.21770011238155 -27.557800099126986 4.662987359552898e-15 7.693112084123421e-15 0.0 0.0 3.1805546814635168e-15 0.0 0.0 0.0 22.28474915871185 12.070299068708504 -48.43735839912217 0.0 0.0 0.0 10.587300003913835 22.355773430394656 -59.42791716571209 103.31369898085848 -1.247269436705287e-15 -9.865601718626946e-16 0.0 0.0 0.0 0.0 0.0 3.4787316828507215e-16 -0.8046656478199471 6.448367049960216 -8.829469739425816 -3.3091322180098284 11.45256029189854 3.2515835345743267 -1.3793457181406746e-33 -1.5902773407317582e-15 -9.939233379573489e-17
0.0 0.0 872.5213967736765 -2.7366278163678617 -7.243030759937445 5.99372981808854 0.0 0.0 3.2302508483613845e-16 0.09106774911211839 -0.6883497553531663 -4.651700472082208 -5.230339296638114 23.784981948302736 4.7129948438304945 0.0 0.0 0.0 0.0 0.0 3.2302508483613845e-16 -1.5089779827023628 12.049704086802942 -5.421059709504271 -11.577029205906753 1.1317570954421256e-15 1.482874952758337e-17 0.0 0.0 0.0 -36.277507767924206 4.749752501105353 70.19265059129764 -27.362284881381104 1.5857936355672084e-15 6.932885326780765e-15 0.0 0.0 1.5902773407317584e-15 0.0 0.0 0.0 22.049077724743018 12.391691100835484 -48.273039229723686 0.0 0.0 0.0 10.377574851757204 22.26356831181805 -59.48863186462888 103.20195924757256 -4.773044126990385e-15 -1.1899658864468316e-14 0.0 0.0 0.0 0.0 0.0 3.2302508483613845e-16 -0.8043641530927037 6.444010490148999 -8.834414836800038 -3.2954494564328405 11.401085090215634 3.2749691990349907 0.0 0.0 0.0
0.0 0.0 872.5213967736765 -2.5050559689477065 -7.254316936305201 5.946214915818367 0.0 0.0 -2.7332891793827095e-16 0.10343388438960902 -0.7821702088094118 -4.62621914279841 -5.3078963498543725 24.035688486011022 4.765882516788611 -7.951386703658792e-16 0.0 0.0 0.0 0.0 -2.7332891793827095e-16 -1.5148847693268974 11.998462819654332 -5.398892424180127 -11.570086059640996 -2.612806506937585e-15 -4.645123679676175e-16 0.0 0.0 0.0 -36.31196439444906 4.69117050610472 70.23397459709132 -27.255119251031726 -1.6858146378105535e-15 -2.0044828566942728e-14 -6.3611093629270335e-15 1.7655625192200634e-31 -3.1805546814635168e-15 0.0 0.0 0.0 21.801833145864425 12.867566809855717 -48.23018543033957 0.0 0.0 0.0 9.848373386718505 22.29800433671857 -59.406447293618136 103.10029549666558 6.227150035701787e-15 4.9444062276456495e-15 0.0 0.0 0.0 0.0 0.0 -2.7332891793827095e-16 -0.8265240577837748 6.567202941670263 -8.986935045262525 -3.2937718012114843 11.241134011198545 3.50849862944049 0.0 0.0 9.93923337957349e-17
